<?xml version="1.0" encoding="UTF-8"?>
<svg width="50px" height="50px" viewBox="0 0 50 50" version="1.1" xmlns="http://www.w3.org/2000/svg" xmlns:xlink="http://www.w3.org/1999/xlink">
    <title>American_Express</title>
    <g id="American_Express" stroke="none" stroke-width="1" fill="none" fill-rule="evenodd">
        <g id="Group" transform="translate(0.000000, 8.000000)" fill-rule="nonzero">
            <path d="M50,31.9997564 C50,33.6566902 48.6767578,34.9999009 47.0444336,34.9999009 L2.95556641,34.9999009 C1.32324219,34.9999009 0,33.6566902 0,31.9997564 L0,3.00004531 C0,1.34321067 1.32324219,0 2.95556641,0 L47.0444336,0 C48.6768555,0 50,1.34321067 50,3.00004531 L50,31.9997564 Z" id="Path" fill="#306FC5"></path>
            <path d="M7.28417969,14.0057293 L8.778125,14.0057293 L8.03134766,12.0758118 L7.28417969,14.0057293 Z M15.2291016,20.4842848 L15.2291016,21.3804525 L17.7416992,21.3804525 L17.7416992,22.3456094 L15.2291016,22.3456094 L15.2291016,23.3797558 L18.0131836,23.3797558 L19.3033203,21.9319707 L18.0811523,20.4842848 L15.2291016,20.4842848 Z M34.8533203,12.0758118 L34.0383789,14.0057293 L35.6003906,14.0057293 L34.8533203,12.0758118 Z M22.4949219,23.9305802 L22.4949219,20.0019541 L20.7292969,21.9319707 L22.4949219,23.9305802 Z M25.8222656,21.1048916 C25.7542969,20.691352 25.4824219,20.4842848 25.0748047,20.4842848 L23.6491211,20.4842848 L23.6491211,21.7249036 L25.1431641,21.7249036 C25.5504883,21.7250027 25.8222656,21.518332 25.8222656,21.1048916 Z M30.5751953,21.5874205 C30.7110352,21.518332 30.7791992,21.311364 30.7791992,21.1049907 C30.847168,20.8295289 30.7110352,20.6914511 30.5751953,20.6224618 C30.4397461,20.5534724 30.2357422,20.5534724 30.0323242,20.5534724 L28.6739258,20.5534724 L28.6739258,21.6564098 L30.0322266,21.6564098 C30.2356445,21.6564098 30.4396484,21.6564098 30.5751953,21.5874205 L30.5751953,21.5874205 Z" id="Shape" fill="#FFFFFF"></path>
            <path d="M40.3532227,10.2836748 L40.3532227,11.110754 L39.9460937,10.2836748 L36.7548828,10.2836748 L36.7548828,11.110754 L36.3472656,10.2836748 L32.0013672,10.2836748 C31.2544922,10.2836748 30.6430664,10.4216535 30.1000977,10.6973135 L30.1000977,10.2836748 L27.0445312,10.2836748 L27.0445312,10.6973135 C26.7050781,10.4217526 26.2976562,10.2836748 25.7543945,10.2836748 L14.8217773,10.2836748 L14.0745117,12.0068225 L13.3277344,10.2836748 L9.86464844,10.2836748 L9.86464844,11.110754 L9.52509766,10.2836748 L6.53730469,10.2836748 L5.17900391,13.5230021 L3.61738281,17.0380886 L3.58867187,17.107177 L7.12392578,17.107177 L7.14853516,17.0380886 L7.55615234,16.0044379 L8.43886719,16.0044379 L8.84628906,17.107177 L12.784375,17.107177 L12.784375,16.2800979 L13.1241211,17.1070779 L15.0931641,17.1070779 L15.4325195,16.2800979 L15.4325195,17.107177 L24.8713867,17.107177 L24.8713867,15.31504 L25.0075195,15.31504 C25.1431641,15.31504 25.1431641,15.31504 25.1431641,15.5219089 L25.1431641,17.0381877 L30.0323242,17.0381877 L30.0323242,16.6246481 C30.4397461,16.8317153 31.0504883,17.0381877 31.8654297,17.0381877 L33.902832,17.0381877 L34.3102539,15.9356468 L35.2606445,15.9356468 L35.6680664,17.0381877 L39.6063477,17.0381877 L39.6063477,16.004537 L40.2177734,17.0381877 L43.4091797,17.0381877 L43.4091797,10.2836748 L40.3532227,10.2836748 L40.3532227,10.2836748 Z M17.334082,16.0735263 L16.2475586,16.0735263 L16.2475586,12.2825816 L16.1795898,12.4406822 L16.1795898,12.4387989 L14.5999023,16.0735263 L13.5991211,16.0735263 L11.9695312,12.2825816 L11.9695312,16.0735263 L9.6609375,16.0735263 L9.18564453,15.0396774 L6.87666016,15.0396774 L6.40126953,16.0735263 L5.20761719,16.0735263 L7.21640625,11.2487326 L8.91386719,11.2487326 L10.8151367,15.8665583 L10.8151367,11.2487326 L12.6141602,11.2487326 L12.6461914,11.3178211 L12.6485352,11.3178211 L13.5052734,13.2104685 L14.1205078,14.6285167 L14.1422852,14.5570493 L15.500293,11.2488318 L17.334082,11.2488318 L17.334082,16.0735263 L17.334082,16.0735263 L17.334082,16.0735263 Z M22.0196289,12.2825816 L19.3712891,12.2825816 L19.3712891,13.178551 L21.9516602,13.178551 L21.9516602,14.1434106 L19.3712891,14.1434106 L19.3712891,15.1086667 L22.0196289,15.1086667 L22.0196289,16.1422183 L18.2169922,16.1422183 L18.2169922,11.2488318 L22.0196289,11.2488318 L22.0196289,12.2825816 Z M26.8628906,14.0598502 C26.8646484,14.0614362 26.8668945,14.0625266 26.869043,14.0640134 C26.8947266,14.0915695 26.9166992,14.1192247 26.9354492,14.1456904 C27.0655273,14.3187585 27.1707031,14.57618 27.1759766,14.9536389 L27.1770508,14.9731661 C27.1770508,14.9769327 27.1777344,14.9802038 27.1777344,14.9840696 L27.1775391,14.9900169 C27.1791016,15.0279809 27.1800781,15.0667378 27.1800781,15.1086667 L27.1800781,16.0736255 L26.1617187,16.0736255 L26.1617187,15.5220081 C26.1617187,15.246348 26.1617187,14.8327093 25.9577148,14.5570493 C25.9007582,14.497948 25.8328558,14.4508547 25.7579102,14.4184759 C25.6561523,14.3515681 25.4632812,14.3504778 25.1431641,14.3504778 L23.9205078,14.3504778 L23.9205078,16.0736255 L22.7664062,16.0736255 L22.7664062,11.2488318 L25.3469727,11.2488318 C25.9577148,11.2488318 26.365332,11.2488318 26.7049805,11.4556016 C27.0376953,11.6584064 27.2386719,11.9947295 27.2462891,12.5273154 C27.2305664,13.2608228 26.7666992,13.6632606 26.4332031,13.7989595 C26.4332031,13.7989595 26.6597656,13.8452498 26.8628906,14.0598502 L26.8628906,14.0598502 Z M29.1495117,16.0735263 L27.9950195,16.0735263 L27.9950195,11.2487326 L29.1495117,11.2487326 L29.1495117,16.0735263 L29.1495117,16.0735263 Z M42.390918,16.0735263 L40.8967773,16.0735263 L38.7239258,12.4203621 L38.7239258,15.4530187 L38.7167969,15.4458819 L38.7167969,16.0765 L37.5696289,16.0765 L37.5696289,16.0736255 L36.4151367,16.0736255 L36.0077148,15.0397765 L33.6308594,15.0397765 L33.2234375,16.1423174 L31.9333008,16.1423174 C31.3904297,16.1423174 30.7109375,16.0046361 30.3037109,15.5910965 C29.8962891,15.1775569 29.6927734,14.6261378 29.6927734,13.7302675 C29.6927734,13.0410679 29.828418,12.3513727 30.3037109,11.8001518 C30.6429687,11.3863148 31.2543945,11.2488318 32.0011719,11.2488318 L33.0878906,11.2488318 L33.0878906,12.2825816 L32.0011719,12.2825816 C31.59375,12.2825816 31.3904297,12.3512736 31.1182617,12.5584399 C30.9149414,12.7651105 30.7790039,13.178551 30.7790039,13.6609808 C30.7790039,14.2124991 30.8469727,14.5570493 31.1182617,14.8327093 C31.3224609,15.0397765 31.5938477,15.1087658 31.9333008,15.1087658 L32.4085937,15.1087658 L33.9702148,11.3180194 L35.6679687,11.3180194 L37.5695312,15.935845 L37.5695312,11.3181185 L39.2669922,11.3181185 L41.2358398,14.6952263 L41.2358398,11.3181185 L42.3907227,11.3181185 L42.3907227,16.0737246 L42.390918,16.0737246 L42.390918,16.0735263 L42.390918,16.0735263 Z" id="Shape" fill="#FFFFFF"></path>
            <path d="M25.8946289,13.2582456 C25.9144531,13.236736 25.9324219,13.2123518 25.9476562,13.1843992 C26.0091797,13.085574 26.0796875,12.9075497 26.0416992,12.6646002 C26.0399974,12.6434007 26.0365677,12.6223809 26.0314453,12.6017565 C26.0301758,12.5962056 26.0303711,12.5913486 26.0289062,12.5857977 L26.0282227,12.5858968 C25.9944336,12.4678418 25.9082031,12.395284 25.822168,12.3512736 C25.6860352,12.2825816 25.4823242,12.2825816 25.2787109,12.2825816 L23.9204102,12.2825816 L23.9204102,13.385519 L25.2787109,13.385519 C25.4823242,13.385519 25.6861328,13.385519 25.822168,13.3164306 C25.8425781,13.3059236 25.8607422,13.2916499 25.8782227,13.2754929 L25.878418,13.276385 C25.8785156,13.2762859 25.8854492,13.2689508 25.8946289,13.2582456 L25.8946289,13.2582456 Z M46.3969727,22.9660179 C46.3969727,22.4835881 46.2613281,22.0009601 46.0577148,21.6564098 L46.0577148,18.5549621 L46.0545898,18.5549621 L46.0545898,18.3478949 L42.7847656,18.3478949 C42.3613281,18.3478949 41.8474609,18.7613354 41.8474609,18.7613354 L41.8474609,18.3478949 L38.7240234,18.3478949 C38.2484375,18.3478949 37.6376953,18.4858736 37.3657227,18.7613354 L37.3657227,18.3478949 L31.7977539,18.3478949 L31.7977539,18.7612363 C31.390625,18.4168843 30.6430664,18.3477958 30.3038086,18.3477958 L26.6369141,18.3477958 L26.6369141,18.7611371 C26.2974609,18.4167851 25.4822266,18.3476967 25.0746094,18.3476967 L21.0009766,18.3476967 L20.0500977,19.3816448 L19.1672852,18.3476967 L13.0561523,18.3476967 L13.0561523,25.3093759 L19.0317383,25.3093759 L20.0135742,24.3124996 L20.8646484,25.3093759 L24.6675781,25.3093759 L24.6675781,23.7242069 L25.0073242,23.7242069 C25.4822266,23.7242069 26.0936523,23.7242069 26.5689453,23.5171397 L26.5689453,25.3782661 L29.624707,25.3782661 L29.624707,23.5861291 L29.7601562,23.5861291 C29.9641602,23.5861291 29.9641602,23.5861291 29.9641602,23.7928989 L29.9641602,25.3782661 L39.1988281,25.3782661 C39.8104492,25.3782661 40.4211914,25.2400892 40.7606445,24.9644291 L40.7606445,25.3782661 L43.6807617,25.3782661 C44.2915039,25.3782661 44.903125,25.3093759 45.3105469,25.0335176 C45.9357422,24.6527876 46.3297852,23.9788529 46.3883789,23.1750675 C46.3911133,23.1512781 46.3945312,23.1274887 46.3969727,23.1036001 L46.3926758,23.0997344 C46.3952148,23.0551292 46.3969727,23.0110196 46.3969727,22.9660179 Z M25.0074219,22.5525775 L23.6490234,22.5525775 L23.6490234,24.3444171 L21.4170898,24.3444171 L20.1180664,22.8279401 L20.1135742,22.8329954 L20.0500977,22.7588517 L18.55625,24.3444171 L14.2104492,24.3444171 L14.2104492,19.5198217 L18.6242188,19.5198217 L19.8300781,20.8604552 L20.0835938,21.1411704 L20.1179688,21.1049907 L21.5441406,19.5199208 L25.1429688,19.5199208 C25.8414063,19.5199208 26.6235352,19.6948722 26.9199219,20.4161876 C26.9555664,20.5590233 26.9762695,20.7178177 26.9762695,20.8982209 C26.9762695,22.2766201 26.0255859,22.5525775 25.0074219,22.5525775 L25.0074219,22.5525775 Z M31.7977539,22.483489 C31.9333984,22.6897632 32.0013672,22.9659188 32.0013672,23.3796566 L32.0013672,24.344318 L30.847168,24.344318 L30.847168,23.7242069 C30.847168,23.4480512 30.847168,22.9659188 30.6431641,22.7588517 C30.5077148,22.5525775 30.2357422,22.5525775 29.8286133,22.5525775 L28.6064453,22.5525775 L28.6064453,24.3444171 L27.4521484,24.3444171 L27.4521484,19.4508323 L30.0323242,19.4508323 C30.5751953,19.4508323 31.0504883,19.4508323 31.390625,19.6574039 C31.7298828,19.8643719 32.0013672,20.2090213 32.0013672,20.7604404 C32.0013672,21.5184311 31.5262695,21.9319707 31.1866211,22.0700485 C31.5262695,22.2073334 31.7298828,22.3456094 31.7977539,22.483489 L31.7977539,22.483489 Z M36.4833008,20.4842848 L33.834668,20.4842848 L33.834668,21.3803533 L36.4151367,21.3803533 L36.4151367,22.3455103 L33.834668,22.3455103 L33.834668,23.3105682 L36.4833008,23.3105682 L36.4833008,24.344318 L32.6806641,24.344318 L32.6806641,19.4507332 L36.4833008,19.4507332 L36.4833008,20.4842848 L36.4833008,20.4842848 Z M39.3350586,24.3444171 L37.1620117,24.3444171 L37.1620117,23.3106673 L39.3350586,23.3106673 C39.5383789,23.3106673 39.6745117,23.3106673 39.8106445,23.1726886 C39.8786133,23.1036001 39.9460938,22.9660179 39.9460938,22.8280392 C39.9460938,22.6898623 39.8786133,22.5526766 39.8106445,22.4835881 C39.7424805,22.4146979 39.6064453,22.3457086 39.402832,22.3457086 C38.3163086,22.2767192 37.0261719,22.3457086 37.0261719,20.8295289 C37.0261719,20.1402302 37.4335938,19.3819421 38.655957,19.3819421 L40.8966797,19.3819421 L40.8966797,20.5534724 L38.7917969,20.5534724 C38.5881836,20.5534724 38.4521484,20.5534724 38.3162109,20.6224618 C38.1807617,20.6915502 38.1807617,20.8295289 38.1807617,20.9672102 C38.1807617,21.1740792 38.3162109,21.2430685 38.4520508,21.3114631 C38.5881836,21.3805516 38.7238281,21.3805516 38.8594727,21.3805516 L39.4707031,21.3805516 C40.0819336,21.3805516 40.4892578,21.5184311 40.7608398,21.7941903 C40.9646484,22.0010592 41.1004883,22.3457086 41.1004883,22.8280392 C41.1004883,23.8615908 40.4893555,24.3444171 39.3350586,24.3444171 L39.3350586,24.3444171 Z M45.1748047,23.8615908 C44.9035156,24.1376473 44.4279297,24.3444171 43.7486328,24.3444171 L41.5761719,24.3444171 L41.5761719,23.3106673 L43.7485352,23.3106673 C43.9523437,23.3106673 44.0884766,23.3106673 44.2241211,23.1726886 C44.2917969,23.1036001 44.3599609,22.9660179 44.3599609,22.8280392 C44.3599609,22.6898623 44.2917969,22.5526766 44.2241211,22.4835881 C44.1561523,22.4146979 44.0205078,22.3457086 43.8166992,22.3457086 C42.7305664,22.2767192 41.4400391,22.3457086 41.4400391,20.829628 C41.4400391,20.1745266 41.8092773,19.5827646 42.7199219,19.4070201 C42.8358442,19.3904573 42.9527591,19.3820778 43.0698242,19.3819421 L45.3108398,19.3819421 L45.3108398,20.5534724 L43.2056641,20.5534724 C43.0018555,20.5534724 42.8662109,20.5534724 42.7305664,20.6224618 C42.662207,20.6915502 42.5942383,20.8295289 42.5942383,20.9672102 C42.5942383,21.1740792 42.662207,21.2430685 42.8662109,21.3114631 C43.0018555,21.3805516 43.1376953,21.3805516 43.2736328,21.3805516 L43.8845703,21.3805516 C44.1813477,21.3805516 44.4057617,21.4177226 44.6111328,21.4909742 C44.7992187,21.5600626 45.421875,21.8427604 45.5611328,22.5807283 C45.5732422,22.6580439 45.5821289,22.7387298 45.5821289,22.8280392 C45.5821289,23.2416779 45.4462891,23.5862282 45.1748047,23.8615908 L45.1748047,23.8615908 Z" id="Shape" fill="#FFFFFF"></path>
        </g>
    </g>
</svg>