<?xml version="1.0" encoding="UTF-8"?>
<svg width="32px" height="32px" viewBox="0 0 32 32" version="1.1" xmlns="http://www.w3.org/2000/svg" xmlns:xlink="http://www.w3.org/1999/xlink">
    <title>Group 2</title>
    <defs>
        <circle id="path-1" cx="15" cy="15" r="15"></circle>
    </defs>
    <g id="App-Designs" stroke="none" stroke-width="1" fill="none" fill-rule="evenodd">
        <g id="profile" transform="translate(-203.000000, -181.000000)">
            <g id="Group-2" transform="translate(204.000000, 182.000000)">
                <g id="Oval">
                    <use fill="#FFFFFF" xlink:href="#path-1"></use>
                    <use stroke="#FFFFFF" stroke-width="1" fill="#131313" xlink:href="#path-1"></use>
                </g>
                <g id="camera" transform="translate(5.000000, 5.000000)">
                    <path d="M14.3667046,18.3333333 C16.6667046,18.3333333 17.5833711,16.925 17.6917044,15.2083333 L18.1250381,8.32499981 C18.2417048,6.52499974 16.8083715,5 15.0000381,5 C14.4917048,5 14.0250375,4.70833346 13.7917042,4.25833344 L13.1917048,3.05000007 C12.8083714,2.29166672 11.8083711,1.66666667 10.9583712,1.66666667 L9.05003786,1.66666667 C8.19170455,1.66666667 7.19170449,2.29166672 6.80837115,3.05000007 L6.20837092,4.25833344 C5.97503759,4.70833346 5.50837129,5 5.00003795,5 C3.19170455,5 1.75837122,6.52499974 1.87503789,8.32499981 L2.30837122,15.2083333 C2.40837121,16.925 3.33337128,18.3333333 5.63337127,18.3333333 L14.3667046,18.3333333 Z" id="Vector" stroke="#FFFFFF" stroke-width="1.5" stroke-linecap="round" stroke-linejoin="round" stroke-dasharray="0,0" fill-rule="nonzero"></path>
                    <line x1="8.75" y1="6.66666667" x2="11.25" y2="6.66666667" id="Vector" stroke="#FFFFFF" stroke-width="1.5" stroke-linecap="round" stroke-linejoin="round" stroke-dasharray="0,0" fill-rule="nonzero"></line>
                    <path d="M12.7083333,12.2916667 C12.7083333,10.8 11.4916666,9.58333333 10,9.58333333 C8.50833337,9.58333333 7.29166667,10.8 7.29166667,12.2916667 C7.29166667,13.7833333 8.50833337,15 10,15 C11.4916666,15 12.7083333,13.7833333 12.7083333,12.2916667 Z" id="Vector" stroke="#FFFFFF" stroke-width="1.5" stroke-linecap="round" stroke-linejoin="round" stroke-dasharray="0,0" fill-rule="nonzero"></path>
                    <path d="M20,0 L20,20 L0,20 L0,0 L20,0 Z" id="Vector" opacity="0"></path>
                </g>
            </g>
        </g>
    </g>
</svg>