<?xml version="1.0" encoding="UTF-8"?>
<svg width="22px" height="22px" viewBox="0 0 22 22" version="1.1" xmlns="http://www.w3.org/2000/svg" xmlns:xlink="http://www.w3.org/1999/xlink">
    <title>noun-cart-5755105</title>
    <g id="App-Designs" stroke="none" stroke-width="1" fill="none" fill-rule="evenodd">
        <g id="Check-Out-Copy-2" transform="translate(-218.000000, -754.000000)" fill="#131313" fill-rule="nonzero">
            <g id="Bottom_Navigation" transform="translate(0.000000, 740.000000)">
                <g id="Cart" transform="translate(217.000000, 14.000000)">
                    <g id="noun-cart-5755105" transform="translate(1.000000, 0.000000)">
                        <path d="M17.0234443,15.7139009 C17.9780404,15.7139009 18.8321125,15.1442495 19.1990093,14.2635078 L21.8177507,7.97794748 C22.1218547,7.24891227 22.0417094,6.42146315 21.604841,5.76466699 C21.1663967,5.10701779 20.4333035,4.71417027 19.6428951,4.71417027 L5.36166738,4.71417027 L4.81397114,1.90533293 C4.59860561,0.801498739 3.62523818,0 2.50088726,0 L0.785694253,0 C0.351281656,0 0,0.3519824 0,0.785695044 C0,1.21940769 0.351281656,1.57139009 0.785694253,1.57139009 L2.50088726,1.57139009 C2.87637278,1.57139009 3.20011024,1.83849049 3.27167577,2.20695003 L3.93951588,5.63419671 L5.35762666,14.1430496 L4.71326758,14.1430496 C3.41372929,14.1430496 2.35618482,15.2005951 2.35618482,16.5001347 C2.35618482,17.7996743 3.41372929,18.8572198 4.71326758,18.8572198 L5.64348468,18.8572198 C5.55544652,19.1039775 5.49897081,19.3663502 5.49897081,19.6429149 C5.49897081,20.9424545 6.55651528,22 7.85605357,22 C9.15559187,22 10.2131363,20.9424545 10.2131363,19.6429149 C10.2131363,19.3663412 10.15649,19.103973 10.0686225,18.8572198 L12.715604,18.8572198 C12.6275658,19.1039775 12.5710901,19.3663502 12.5710901,19.6429149 C12.5710901,20.9424545 13.6286346,22 14.9281728,22 C16.2277111,22 17.2852556,20.9424545 17.2852556,19.6429149 C17.2852556,19.3663412 17.2286093,19.103973 17.1407417,18.8572198 L18.0709588,18.8572198 C18.5053714,18.8572198 18.8566531,18.5052374 18.8566531,18.0715248 C18.8566531,17.6378121 18.5053714,17.2858297 18.0709588,17.2858297 L4.71415654,17.2858297 C4.28044433,17.2858297 3.92846229,16.9329674 3.92846229,16.5001347 C3.92846229,16.067302 4.28044433,15.7144396 4.71415654,15.7144396 L17.0235162,15.7144396 L17.0234443,15.7139009 Z M8.64255597,19.6423761 C8.64255597,20.0752088 8.29057392,20.4280711 7.85686172,20.4280711 C7.42314951,20.4280711 7.07116746,20.0752088 7.07116746,19.6423761 C7.07116746,19.2095434 7.42314951,18.8566811 7.85686172,18.8566811 C8.29057392,18.8566811 8.64255597,19.2095434 8.64255597,19.6423761 Z M15.7138042,19.6423761 C15.7138042,20.0752088 15.3618222,20.4280711 14.92811,20.4280711 C14.4943978,20.4280711 14.1424157,20.0752088 14.1424157,19.6423761 C14.1424157,19.2095434 14.4943978,18.8566811 14.92811,18.8566811 C15.3618222,18.8566811 15.7138042,19.2095434 15.7138042,19.6423761 Z M20.3673591,7.37296229 L17.7486177,13.6585226 C17.6260269,13.9524579 17.3408648,14.1417027 17.0234443,14.1417027 L6.950844,14.141878 L5.64183248,6.28492758 L19.6420061,6.28492758 C19.9091063,6.28492758 20.1479932,6.41295546 20.2956589,6.6353341 C20.443329,6.85771273 20.4701593,7.12641595 20.3672154,7.37227115 L20.3673591,7.37296229 Z" id="Shape"></path>
                        <polygon id="Path-2" points="5.11383843 5.84684291 6.63073962 14.3720803 17.7277962 14.3720803 21.2286138 6.29372476 19.349731 5.84684291"></polygon>
                    </g>
                </g>
            </g>
        </g>
    </g>
</svg>