<?xml version="1.0" encoding="UTF-8"?>
<svg width="22px" height="22px" viewBox="0 0 22 22" version="1.1" xmlns="http://www.w3.org/2000/svg" xmlns:xlink="http://www.w3.org/1999/xlink">
    <title>Contact</title>
    <g id="App-Designs" stroke="none" stroke-width="1" fill="none" fill-rule="evenodd">
        <g id="Settings-Copy" transform="translate(-17.000000, -571.000000)">
            <g id="Contact-Us" transform="translate(0.000000, 552.000000)">
                <g id="call" transform="translate(16.000000, 18.000000)">
                    <path d="M13.8999996,21.9599991 C12.6999996,21.4499991 11.4900004,20.75 10.3100004,19.8999996 C9.14000046,19.0399996 8.01000011,18.0800006 6.94000006,17.0300007 C5.88000011,15.9600006 4.9200002,14.83 4.07000017,13.6700001 C3.21000016,12.47 2.51999998,11.2699996 2.02999997,10.1099997 C1.50999999,8.86999965 1.25,7.66999996 1.25,6.53999996 C1.25,5.75999999 1.38999996,5.01999992 1.65999997,4.32999992 C1.93999997,3.61999995 2.38999999,2.9600001 3,2.3900001 C3.76999998,1.63000011 4.65000015,1.25 5.59000015,1.25 C5.98000014,1.25 6.37999979,1.34 6.71999979,1.5 C7.10999978,1.68000001 7.43999983,1.94999993 7.67999983,2.30999994 L10,5.57999992 C10.21,5.86999992 10.3699995,6.14999983 10.4799995,6.42999983 C10.6099995,6.72999984 10.6800003,7.03000018 10.6800003,7.32000017 C10.6800003,7.70000017 10.5699997,8.07000008 10.3599997,8.42000008 C10.2099997,8.69000009 9.97999957,8.98000047 9.68999958,9.27000046 L9.01000023,9.97999954 C9.02000023,10.0099995 9.02999996,10.0300002 9.03999996,10.0500002 C9.15999996,10.2600002 9.39999965,10.6199998 9.85999966,11.1599998 C10.3499997,11.7199998 10.8100004,12.2299998 11.2700005,12.6999998 C11.8600004,13.2799998 12.3500004,13.7399999 12.8100004,14.1199999 C13.3800004,14.5999999 13.75,14.8399998 13.9700003,14.9499998 L13.9499998,15 L14.6800003,14.2799997 C14.9900003,13.9699997 15.2899999,13.7400002 15.5799999,13.5900002 C16.1299999,13.25 16.8300007,13.1899996 17.5300007,13.4799995 C17.7900007,13.5899995 18.0700008,13.7399998 18.3700008,13.9499998 L21.6900005,16.3099995 C22.0600005,16.5599995 22.3299998,16.8800002 22.4899998,17.2600002 C22.6399998,17.6400002 22.7099991,17.9900002 22.7099991,18.3400002 C22.7099991,18.8200001 22.5999994,19.3 22.3899994,19.75 C22.1799994,20.2 21.9200002,20.5900007 21.5900002,20.9500008 C21.0200002,21.5800008 20.4000003,22.0299997 19.6800003,22.3199997 C18.9900003,22.5999997 18.2400008,22.75 17.4500008,22.75 C16.3200008,22.75 15.1299996,22.4799991 13.8999996,21.9599991 Z M4.03999996,3.47000003 C3.57999995,3.90000004 3.25999995,4.37000012 3.05999994,4.88000011 C2.84999995,5.4000001 2.75,5.94999999 2.75,6.53999996 C2.75,7.46999997 2.97000009,8.4800005 3.41000009,9.52000046 C3.86000007,10.5800004 4.48999995,11.6799997 5.28999996,12.7799997 C6.08999997,13.8799998 7,14.95 8,15.96 C9,16.95 10.0799996,17.8700003 11.1899996,18.6800003 C12.2699996,19.4700003 13.3799995,20.1099997 14.4799995,20.5699997 C16.1899996,21.2999997 17.7900006,21.4700001 19.1100006,20.9200001 C19.6200006,20.7100001 20.0699995,20.3900003 20.4799995,19.9300003 C20.7099995,19.6800003 20.8900009,19.4100001 21.0400009,19.0900002 C21.1600009,18.8400002 21.2199993,18.5799997 21.2199993,18.3199997 C21.2199993,18.1599997 21.1900006,17.9999997 21.1100006,17.8199997 C21.0800006,17.7599997 21.0199999,17.6500005 20.8299999,17.5200005 L17.5100002,15.1599998 C17.3100002,15.0199998 17.1299991,14.9200004 16.9599991,14.8500004 C16.7399991,14.7600004 16.6499995,14.6700001 16.3099995,14.8800001 C16.1099995,14.9800001 15.9299995,15.1299999 15.7299995,15.3299999 L14.9700003,16.0799999 C14.5800003,16.4599999 13.9800005,16.5499992 13.5200005,16.3799992 L13.25,16.2600002 C12.84,16.0400002 12.3599999,15.7 11.8299999,15.25 C11.3499999,14.84 10.8299998,14.3599998 10.1999998,13.7399998 C9.7099998,13.2399998 9.22000003,12.7099999 8.71000004,12.1199999 C8.24000004,11.5699999 7.90000005,11.1 7.69000006,10.71 L7.57000017,10.4099998 C7.51000017,10.1799998 7.48999977,10.0499998 7.48999977,9.90999985 C7.48999977,9.54999983 7.61999989,9.22999954 7.86999989,8.97999954 L8.61999989,8.19999981 C8.81999989,7.99999981 8.96999969,7.80999987 9.06999969,7.63999987 C9.14999969,7.50999987 9.18000031,7.40000019 9.18000031,7.30000019 C9.18000031,7.22000019 9.15000038,7.10000002 9.10000038,6.98000002 C9.03000038,6.82000002 8.91999973,6.63999981 8.77999973,6.44999981 L6.46000004,3.17000008 C6.36000004,3.03000008 6.24000016,2.9299999 6.09000015,2.8599999 C5.93000016,2.78999989 5.76000015,2.75 5.59000015,2.75 C5.04000014,2.75 4.52999997,2.99000004 4.03999996,3.47000003 Z M13.79,15.6899996 L14.0600004,14.9899998 C14.0100004,14.9799998 13.9699998,14.9900002 13.9499998,15.0100002 L13.79,15.6899996 Z" id="Vector" fill="#777777"></path>
                    <path d="M24,0 L24,24 L0,24 L0,0 L24,0 Z" id="Vector" opacity="0"></path>
                </g>
            </g>
        </g>
    </g>
</svg>