<?xml version="1.0" encoding="UTF-8"?>
<svg width="50px" height="50px" viewBox="0 0 50 50" version="1.1" xmlns="http://www.w3.org/2000/svg" xmlns:xlink="http://www.w3.org/1999/xlink">
    <title>Discover</title>
    <g id="Discover" stroke="none" stroke-width="1" fill="none" fill-rule="evenodd">
        <g id="icons8-discover-card" transform="translate(0.000000, 6.000000)" fill-rule="nonzero">
            <path d="M50,31.2 C50,33.84 47.8571429,36 45.2380952,36 L4.76190476,36 C2.14285714,36 0,33.84 0,31.2 L0,4.8 C0,2.16 2.14285714,0 4.76190476,0 L45.2380952,0 C47.8571429,0 50,2.16 50,4.8 L50,31.2 Z" id="Path" fill="#F5F5F5"></path>
            <path d="M50,31.2432432 C50,33.8594595 47.8701826,36 45.2670723,36 L15.6862745,36 C15.6862745,36 43.6105477,31.4810811 50,18.1621622 L50,31.2432432 Z M22.785666,18.1621622 C22.785666,20.1837838 24.3238675,21.7297297 26.3353617,21.7297297 C28.346856,21.7297297 29.8850575,20.1837838 29.8850575,18.1621622 C29.8850575,16.1405405 28.346856,14.5945946 26.3353617,14.5945946 C24.3238675,14.5945946 22.785666,16.1405405 22.785666,18.1621622 Z" id="Shape" fill="#FF6D00"></path>
            <path d="M10.1525054,13.7492246 L11.4705882,13.7492246 L11.4705882,21.4054054 L10.1525054,21.4054054 L10.1525054,13.7492246 Z M17.3420479,17.577315 C17.3420479,19.7465662 18.8997821,21.4054054 20.9368192,21.4054054 C21.5359477,21.4054054 22.0152505,21.2778024 22.6143791,21.0225964 L22.6143791,19.3637572 C22.1350763,19.8741693 21.6557734,20.1293753 20.9368192,20.1293753 C19.6187364,20.1293753 18.6601307,19.1085512 18.6601307,17.577315 C18.6601307,16.1736819 19.6187364,15.0252548 20.9368192,15.0252548 C21.5359477,15.0252548 22.0152505,15.2804608 22.6143791,15.7908728 L22.6143791,14.1320337 C22.0152505,13.8768276 21.5359477,13.6216216 20.9368192,13.6216216 C18.8997821,13.7492246 17.3420479,15.5356668 17.3420479,17.577315 Z M33.3986928,18.7257421 L31.4814815,13.7492246 L30.043573,13.7492246 L33.0392157,21.4054054 L33.7581699,21.4054054 L36.7538126,13.7492246 L35.3159041,13.7492246 L33.3986928,18.7257421 Z M37.3529412,21.4054054 L41.1873638,21.4054054 L41.1873638,20.1293753 L38.671024,20.1293753 L38.671024,18.0877271 L41.0675381,18.0877271 L41.0675381,16.8116969 L38.671024,16.8116969 L38.671024,15.0252548 L41.1873638,15.0252548 L41.1873638,13.7492246 L37.3529412,13.7492246 L37.3529412,21.4054054 Z M46.459695,16.0460789 C46.459695,14.6424457 45.620915,13.7492246 44.0631808,13.7492246 L42.0261438,13.7492246 L42.0261438,21.4054054 L43.3442266,21.4054054 L43.3442266,18.3429331 L43.4640523,18.3429331 L45.3812636,21.4054054 L47.0588235,21.4054054 L44.9019608,18.2153301 C45.8605664,17.9601241 46.459695,17.194506 46.459695,16.0460789 Z M43.7037037,17.322109 L43.3442266,17.322109 L43.3442266,15.0252548 L43.7037037,15.0252548 C44.5424837,15.0252548 45.0217865,15.4080638 45.0217865,16.1736819 C45.0217865,16.8116969 44.6623094,17.322109 43.7037037,17.322109 Z M5.95860566,13.7492246 L3.92156863,13.7492246 L3.92156863,21.4054054 L5.83877996,21.4054054 C8.83442266,21.4054054 9.55337691,18.7257421 9.55337691,17.577315 C9.67320261,15.2804608 8.11546841,13.7492246 5.95860566,13.7492246 Z M5.59912854,20.1293753 L5.23965142,20.1293753 L5.23965142,15.0252548 L5.71895425,15.0252548 C7.51633987,15.0252548 8.23529412,16.3012849 8.23529412,17.577315 C8.23529412,18.0877271 8.11546841,20.1293753 5.59912854,20.1293753 Z M15.0653595,16.6840939 C14.2265795,16.3012849 13.9869281,16.1736819 13.9869281,15.7908728 C13.9869281,15.2804608 14.4662309,15.0252548 14.9455338,15.0252548 C15.3050109,15.0252548 15.664488,15.1528578 16.0239651,15.6632698 L16.7429194,14.6424457 C16.1437908,14.0044307 15.5446623,13.7492246 14.7058824,13.7492246 C13.5076253,13.7492246 12.5490196,14.6424457 12.5490196,15.9184759 C12.5490196,16.9393 13.0283224,17.449712 14.2265795,17.9601241 C14.9455338,18.2153301 15.5446623,18.4705361 15.5446623,19.1085512 C15.5446623,19.7465662 15.0653595,20.1293753 14.4662309,20.1293753 C13.8671024,20.1293753 13.2679739,19.7465662 13.0283224,19.1085512 L12.1895425,20.0017723 C12.788671,21.0225964 13.5076253,21.4054054 14.5860566,21.4054054 C16.0239651,21.4054054 16.9825708,20.3845813 16.9825708,18.9809482 C16.9825708,17.832521 16.503268,17.322109 15.0653595,16.6840939 Z" id="Shape" fill="#000000"></path>
        </g>
    </g>
</svg>