<?xml version="1.0" encoding="UTF-8"?>
<svg width="24px" height="24px" viewBox="0 0 24 24" version="1.1" xmlns="http://www.w3.org/2000/svg" xmlns:xlink="http://www.w3.org/1999/xlink">
    <title>FAQ</title>
    <g id="App-Designs" stroke="none" stroke-width="1" fill="none" fill-rule="evenodd">
        <g id="Settings-Copy" transform="translate(-16.000000, -509.000000)" fill="#777777" fill-rule="nonzero">
            <g id="FAQ" transform="translate(16.000000, 509.000000)">
                <path d="M12,0 C5.36770313,0 0,5.367 0,12 C0,18.6322969 5.367,24 12,24 C18.6322969,24 24,18.633 24,12 C24,5.36770313 18.633,0 12,0 Z M12,22.3255781 C6.30646875,22.3255781 1.67442188,17.6935312 1.67442188,12 C1.67442188,6.30646875 6.30646875,1.67442188 12,1.67442188 C17.6935312,1.67442188 22.3255781,6.30646875 22.3255781,12 C22.3255781,17.6935312 17.6935312,22.3255781 12,22.3255781 Z" id="Shape"></path>
                <path d="M11.9259259,9.48148148 C11.4759073,9.48148148 11.1111111,9.85867147 11.1111111,10.323874 L11.1111111,17.2316815 C11.1111111,17.6969313 11.4759529,18.0740741 11.9259259,18.0740741 C12.375899,18.0740741 12.7407407,17.6968841 12.7407407,17.2316815 L12.7407407,10.3239212 C12.7407407,9.85867147 12.3759446,9.48148148 11.9259259,9.48148148 Z" id="Path"></path>
                <path d="M11.9259259,5.92592593 C11.4759073,5.92592593 11.1111111,6.29905303 11.1111111,6.75924468 L11.1111111,7.75927384 C11.1111111,8.21951215 11.4759529,8.59259259 11.9259259,8.59259259 C12.375899,8.59259259 12.7407407,8.21946549 12.7407407,7.75927384 L12.7407407,6.75924468 C12.7407407,6.29905303 12.3759446,5.92592593 11.9259259,5.92592593 Z" id="Path"></path>
            </g>
        </g>
    </g>
</svg>