<?xml version="1.0" encoding="UTF-8"?>
<svg width="22px" height="22px" viewBox="0 0 22 22" version="1.1" xmlns="http://www.w3.org/2000/svg" xmlns:xlink="http://www.w3.org/1999/xlink">
    <title>Home</title>
    <g id="App-Designs" stroke="none" stroke-width="1" fill="none" fill-rule="evenodd">
        <g id="location_map_copy-copy-2" transform="translate(-21.000000, -160.000000)">
            <g id="house" transform="translate(20.000000, 159.000000)">
                <path d="M2,22.75 C1.59,22.75 1.25,22.41 1.25,22 C1.25,21.59 1.59,21.25 2,21.25 L22,21.25 C22.41,21.25 22.75,21.59 22.75,22 C22.75,22.41 22.41,22.75 22,22.75 L2,22.75 Z" id="Vector" fill="#131313" fill-rule="nonzero"></path>
                <path d="M2.20019531,21.9997406 L2.25019455,9.96971226 C2.25019455,9.11971223 2.64019591,8.32973862 3.31019592,7.80973864 L10.3101959,2.35972655 C11.3001959,1.58972657 12.6901932,1.58972657 13.6901932,2.35972655 L20.690197,7.79972887 C21.350197,8.31972885 21.7501945,9.12971228 21.7501945,9.96971226 L21.7501945,21.9997406 L20.2501945,21.9997406 L20.2501945,9.97972202 C20.2501945,9.59972203 20.070195,9.22973131 19.770195,8.98973131 L12.770195,3.54972899 C12.320195,3.199729 11.6901941,3.199729 11.2301941,3.54972899 L4.23019409,8.99974108 C3.93019408,9.22974108 3.75019455,9.59972203 3.75019455,9.97972202 L3.70019531,21.9997406 L2.20019531,21.9997406 Z" id="Vector" fill="#131313" fill-rule="nonzero"></path>
                <path d="M9.5,22.75 C9.09,22.75 8.75,22.41 8.75,22 L8.75,18.5 C8.75,17.26 9.75999999,16.25 11,16.25 L13,16.25 C14.24,16.25 15.25,17.26 15.25,18.5 L15.25,22 C15.25,22.41 14.91,22.75 14.5,22.75 L9.5,22.75 Z M13.75,21.25 L13.75,18.5 C13.75,18.09 13.41,17.75 13,17.75 L11,17.75 C10.59,17.75 10.25,18.09 10.25,18.5 L10.25,21.25 L13.75,21.25 Z" id="Vector" fill="#131313"></path>
                <path d="M7.5,14.5 C6.54000002,14.5 5.75,13.71 5.75,12.75 L5.75,11.25 C5.75,10.29 6.54000002,9.5 7.5,9.5 L9.5,9.5 C10.46,9.5 11.25,10.29 11.25,11.25 L11.25,12.75 C11.25,13.71 10.46,14.5 9.5,14.5 L7.5,14.5 Z M7.25,11.25 L7.25,12.75 C7.25,12.89 7.36,13 7.5,13 L9.5,13 C9.64,13 9.75,12.89 9.75,12.75 L9.75,11.25 C9.75,11.11 9.64,11 9.5,11 L7.5,11 C7.36,11 7.25,11.11 7.25,11.25 Z" id="Vector" fill="#131313"></path>
                <path d="M14.5,14.5 C13.54,14.5 12.75,13.71 12.75,12.75 L12.75,11.25 C12.75,10.29 13.54,9.5 14.5,9.5 L16.5,9.5 C17.46,9.5 18.25,10.29 18.25,11.25 L18.25,12.75 C18.25,13.71 17.46,14.5 16.5,14.5 L14.5,14.5 Z M14.25,11.25 L14.25,12.75 C14.25,12.89 14.36,13 14.5,13 L16.5,13 C16.64,13 16.75,12.89 16.75,12.75 L16.75,11.25 C16.75,11.11 16.64,11 16.5,11 L14.5,11 C14.36,11 14.25,11.11 14.25,11.25 Z" id="Vector" fill="#131313"></path>
                <path d="M18.2500763,7.01000977 L18.2300758,4.75 L14.5800781,4.75 C14.1700781,4.75 13.8300781,4.41 13.8300781,4 C13.8300781,3.59 14.1700781,3.25 14.5800781,3.25 L18.9800758,3.25 C19.3900758,3.25 19.7300758,3.57999024 19.7300758,3.98999023 L19.7600746,6.98999023 C19.7500746,7.40999022 19.4200763,7.75 19.0000763,7.75 C19.006743,7.75 19.006743,7.75 19.0000763,7.75 C18.5900763,7.75 18.2500763,7.42000976 18.2500763,7.01000977 Z" id="Vector" fill="#131313" fill-rule="nonzero"></path>
                <path d="M24,0 L24,24 L0,24 L0,0 L24,0 Z" id="Vector" opacity="0"></path>
            </g>
        </g>
    </g>
</svg>