<?xml version="1.0" encoding="UTF-8"?>
<svg width="24px" height="24px" viewBox="0 0 24 24" version="1.1" xmlns="http://www.w3.org/2000/svg" xmlns:xlink="http://www.w3.org/1999/xlink">
    <title>home</title>
    <g id="App-Designs" stroke="none" stroke-width="1" fill="none" fill-rule="evenodd">
        <g id="Settings-Copy" transform="translate(-42.000000, -754.000000)">
            <g id="Bottom_Navigation" transform="translate(0.000000, 740.000000)">
                <g id="Group-13" transform="translate(36.000000, 14.000000)">
                    <g id="home-2" transform="translate(6.000000, 0.000000)">
                        <path d="M24,0 L24,24 L0,24 L0,0 L24,0 Z" id="Vector" opacity="0"></path>
                        <path d="M3.63000011,7.04004049 C2.73000014,7.74004048 2,9.23003972 2,10.3600397 L2,17.7700405 C2,20.0900404 3.8900001,21.9900398 6.21000004,21.9900398 L17.7900009,21.9900398 C20.1100008,21.9900398 22,20.0900407 22,17.7800407 L22,10.5000401 C22,9.29004002 21.1900008,7.74004072 20.2000008,7.05004072 L14.0200005,2.7200405 C12.6200005,1.74004048 10.3700005,1.79004043 9.02000046,2.84004039 L3.63000011,7.04004049 Z" id="Vector" stroke="#777777" stroke-width="2.5" stroke-linecap="round" stroke-linejoin="round" stroke-dasharray="0,0" fill-rule="nonzero"></path>
                        <line x1="12" y1="17.9899902" x2="12" y2="14.9899902" id="Vector" stroke="#777777" stroke-width="2.5" stroke-linecap="round" stroke-linejoin="round" stroke-dasharray="0,0" fill-rule="nonzero"></line>
                    </g>
                </g>
            </g>
        </g>
    </g>
</svg>