<?xml version="1.0" encoding="UTF-8"?>
<svg width="20px" height="22px" viewBox="0 0 20 22" version="1.1" xmlns="http://www.w3.org/2000/svg" xmlns:xlink="http://www.w3.org/1999/xlink">
    <title>Location</title>
    <g id="Page-1" stroke="none" stroke-width="1" fill="none" fill-rule="evenodd">
        <g id="Home_1-Copy-2" transform="translate(-16.000000, -1002.000000)">
            <g id="Group-3" transform="translate(0.000000, 986.000000)">
                <g id="Group" transform="translate(14.000000, 8.000000)">
                    <g id="Location" transform="translate(0.000000, 7.000000)">
                        <g id="location" transform="translate(0.000000, -0.000000)">
                            <path d="M12.0000048,13.4299417 C10.2768763,13.4299417 8.88000488,12.0330702 8.88000488,10.3099418 C8.88000488,8.58681333 10.2768763,7.18994141 12.0000048,7.18994141 C13.7231332,7.18994141 15.1200047,8.58681333 15.1200047,10.3099418 C15.1200047,12.0330702 13.7231332,13.4299417 12.0000048,13.4299417 Z" id="Vector" stroke="#131313" stroke-width="1.5" stroke-dasharray="0,0"></path>
                            <path d="M20.3800144,8.5 C21.5300144,13.5800023 18.3700147,17.8800027 15.6000147,20.5400028 C13.5900147,22.4800029 10.4100146,22.4800029 8.39001465,20.5400028 C5.63001466,17.8800027 2.47001421,13.5700021 3.62001419,8.49000216 C5.59001422,-0.169997692 18.4200144,-0.159997463 20.3800144,8.5 Z" id="Vector" stroke="#131313" stroke-width="1.5" stroke-dasharray="0,0" fill-rule="nonzero"></path>
                            <path d="M24,3.55271368e-15 L24,24 L0,24 L0,3.55271368e-15 L24,3.55271368e-15 Z" id="Vector" opacity="0" transform="translate(12.000000, 12.000000) rotate(-180.000000) translate(-12.000000, -12.000000) "></path>
                        </g>
                    </g>
                </g>
            </g>
        </g>
    </g>
</svg>