<?xml version="1.0" encoding="UTF-8"?>
<svg width="708px" height="668px" viewBox="0 0 708 668" version="1.1" xmlns="http://www.w3.org/2000/svg" xmlns:xlink="http://www.w3.org/1999/xlink">
    <title>Location_pin_gradient</title>
    <g id="Location_pin_gradient" stroke="none" stroke-width="1" fill="none" fill-rule="evenodd">
        <g id="Group" transform="translate(155.000000, 2.000000)">
            <path d="M166,389 L233,389 L233,632.5 C233,651.001539 218.001539,666 199.5,666 C180.998461,666 166,651.001539 166,632.5 L166,389 L166,389 Z" id="Rectangle" fill="#000000"></path>
            <path d="M199,0 C308.904665,0 398,89.0953348 398,199 C398,308.904665 308.904665,398 199,398 C89.0953348,398 0,308.904665 0,199 C0,89.0953348 89.0953348,0 199,0 Z M199.5,132 C162.220779,132 132,162.220779 132,199.5 C132,236.779221 162.220779,267 199.5,267 C236.779221,267 267,236.779221 267,199.5 C267,162.220779 236.779221,132 199.5,132 Z" id="Combined-Shape" fill="#C4A927" fill-rule="nonzero" transform="translate(199.000000, 199.000000) scale(-1, -1) translate(-199.000000, -199.000000) "></path>
        </g>
    </g>
</svg>