<?xml version="1.0" encoding="UTF-8"?>
<svg width="50px" height="50px" viewBox="0 0 50 50" version="1.1" xmlns="http://www.w3.org/2000/svg" xmlns:xlink="http://www.w3.org/1999/xlink">
    <title>Master</title>
    <g id="Master" stroke="none" stroke-width="1" fill="none" fill-rule="evenodd">
        <g id="Mastercard-logo" transform="translate(0.000000, 8.000000)" fill-rule="nonzero">
            <g id="master-card" fill="#3D3D40">
                <path d="M50,30.3333333 C50,32.9 47.8571429,35 45.2380952,35 L4.76190476,35 C2.14285714,35 0,32.9 0,30.3333333 L0,4.66666667 C0,2.1 2.14285714,0 4.76190476,0 L45.2380952,0 C47.8571429,0 50,2.1 50,4.66666667 L50,30.3333333 Z" id="Path"></path>
            </g>
            <g id="Group" transform="translate(15.686275, 9.722222)">
                <rect id="rect19" fill="#FF5A00" x="7.50011774" y="1.32178873" width="5.57151604" height="9.71444724"></rect>
                <path d="M7.87100268,6.17901235 C7.87100268,4.20532782 8.82706165,2.45360781 10.2941176,1.32178873 C9.21443037,0.497920412 7.85245844,0 6.36685819,0 C2.84757218,0 0,2.76355827 0,6.17901235 C0,9.59446642 2.84757218,12.3580247 6.36685819,12.3580247 C7.85245844,12.3580247 9.21443037,11.8601043 10.2941176,11.036236 C8.82500118,9.92041432 7.87100268,8.15269687 7.87100268,6.17901235 Z" id="XMLID_330_" fill="#EB001B"></path>
                <path d="M20.5882353,6.17901235 C20.5882353,9.59446642 17.7406631,12.3580247 14.2213771,12.3580247 C12.7357769,12.3580247 11.3738049,11.8601043 10.2941176,11.036236 C11.7797179,9.9024172 12.7172326,8.15269687 12.7172326,6.17901235 C12.7172326,4.20532782 11.7611736,2.45360781 10.2941176,1.32178873 C11.3717445,0.497920412 12.7337164,0 14.2193166,0 C17.7406631,0 20.5882353,2.7815554 20.5882353,6.17901235 Z" id="path22" fill="#F79E1B"></path>
                <path d="M3.67808815,15.5215653 L3.67808815,14.4918595 C3.67808815,14.097972 3.43114937,13.8400457 3.0072378,13.8400457 C2.79528201,13.8400457 2.56480582,13.9080263 2.40635343,14.1319623 C2.28288404,13.944016 2.10591125,13.8400457 1.84045206,13.8400457 C1.66347927,13.8400457 1.48650648,13.8920308 1.3465745,14.0799771 L1.3465745,13.874036 L0.976166329,13.874036 L0.976166329,15.5215653 L1.3465745,15.5215653 L1.3465745,14.6118252 C1.3465745,14.3199086 1.50502688,14.181948 1.75196566,14.181948 C1.99890444,14.181948 2.12237384,14.335904 2.12237384,14.6118252 L2.12237384,15.5215653 L2.49278201,15.5215653 L2.49278201,14.6118252 C2.49278201,14.3199086 2.6697548,14.181948 2.89817317,14.181948 C3.14511195,14.181948 3.26858134,14.335904 3.26858134,14.6118252 L3.26858134,15.5215653 L3.67808815,15.5215653 Z M9.17247602,13.874036 L8.57159165,13.874036 L8.57159165,13.3761782 L8.20118348,13.3761782 L8.20118348,13.874036 L7.86575831,13.874036 L7.86575831,14.1999429 L8.20118348,14.1999429 L8.20118348,14.9557269 C8.20118348,15.333619 8.35963587,15.5555556 8.78354744,15.5555556 C8.94199982,15.5555556 9.11897262,15.5035704 9.24244201,15.4355898 L9.1354352,15.1256784 C9.0284284,15.193659 8.90495901,15.2116538 8.81647261,15.2116538 C8.63949982,15.2116538 8.56953383,15.1076835 8.56953383,14.9377321 L8.56953383,14.1999429 L9.1704182,14.1999429 L9.1704182,13.874036 L9.17247602,13.874036 Z M12.3168298,13.8380463 C12.104874,13.8380463 11.9628842,13.9420166 11.8743978,14.0779777 L11.8743978,13.8720366 L11.5039897,13.8720366 L11.5039897,15.5195658 L11.8743978,15.5195658 L11.8743978,14.5918309 C11.8743978,14.3179092 11.9978672,14.1619537 12.2283434,14.1619537 C12.2983094,14.1619537 12.3867958,14.1799486 12.4588196,14.195944 L12.5658264,13.8520423 C12.4917448,13.8380463 12.3867958,13.8380463 12.3168298,13.8380463 L12.3168298,13.8380463 Z M7.56531612,14.0099971 C7.38834333,13.8900314 7.14140455,13.8380463 6.87594536,13.8380463 C6.45203379,13.8380463 6.17011201,14.0439874 6.17011201,14.3698943 C6.17011201,14.6438161 6.3820678,14.7997715 6.75247597,14.8497572 L6.92944876,14.8677521 C7.12288414,14.9017424 7.22989095,14.9537275 7.22989095,15.0397029 C7.22989095,15.1596687 7.08790115,15.2456441 6.84096237,15.2456441 C6.59402359,15.2456441 6.39853039,15.1596687 6.27506099,15.0736932 L6.0980882,15.347615 C6.29152358,15.4855755 6.55698277,15.5535561 6.82244196,15.5535561 C7.31631952,15.5535561 7.60029912,15.3296201 7.60029912,15.0217081 C7.60029912,14.7297915 7.36982292,14.5758355 7.01793516,14.5238503 L6.84096237,14.5058555 C6.68250998,14.4878606 6.55904059,14.4538703 6.55904059,14.3518995 C6.55904059,14.2319337 6.68250998,14.1639532 6.87800318,14.1639532 C7.08995897,14.1639532 7.30191476,14.2499286 7.40892156,14.3019137 L7.56531612,14.0099971 L7.56531612,14.0099971 Z M17.4202313,13.8380463 C17.2082755,13.8380463 17.0662857,13.9420166 16.9777993,14.0779777 L16.9777993,13.8720366 L16.6073911,13.8720366 L16.6073911,15.5195658 L16.9777993,15.5195658 L16.9777993,14.5918309 C16.9777993,14.3179092 17.1012687,14.1619537 17.3317449,14.1619537 C17.4017109,14.1619537 17.4901973,14.1799486 17.5622211,14.195944 L17.6692279,13.8560411 C17.5972041,13.8380463 17.4922551,13.8380463 17.4202313,13.8380463 L17.4202313,13.8380463 Z M12.687238,14.6978006 C12.687238,15.1956584 13.0411836,15.5555556 13.5885645,15.5555556 C13.8355033,15.5555556 14.0124761,15.5035704 14.1894489,15.3676093 L14.0124761,15.0756927 C13.8704863,15.179663 13.7305543,15.2296487 13.5700441,15.2296487 C13.269602,15.2296487 13.0576462,15.0237075 13.0576462,14.6978006 C13.0576462,14.3878892 13.269602,14.181948 13.5700441,14.1659526 C13.7284965,14.1659526 13.8704863,14.2179377 14.0124761,14.3199086 L14.1894489,14.027992 C14.0124761,13.8900314 13.8355033,13.8400375 13.5885645,13.8400375 C13.0411836,13.8380463 12.687238,14.1999429 12.687238,14.6978006 L12.687238,14.6978006 L12.687238,14.6978006 Z M16.1135136,14.6978006 L16.1135136,13.874036 L15.7431054,13.874036 L15.7431054,14.0799771 C15.619636,13.9260211 15.4426632,13.8400457 15.212187,13.8400457 C14.7347721,13.8400457 14.3643639,14.1999429 14.3643639,14.6978006 C14.3643639,15.1956584 14.7347721,15.5555556 15.212187,15.5555556 C15.4591258,15.5555556 15.6360986,15.4695801 15.7431054,15.3156241 L15.7431054,15.5215653 L16.1135136,15.5215653 L16.1135136,14.6978006 L16.1135136,14.6978006 Z M14.7532925,14.6978006 C14.7532925,14.405884 14.9467278,14.1659526 15.2656904,14.1659526 C15.5661326,14.1659526 15.7780884,14.3898886 15.7780884,14.6978006 C15.7780884,14.9897172 15.5661326,15.2296487 15.2656904,15.2296487 C14.9487857,15.2116538 14.7532925,14.9877178 14.7532925,14.6978006 L14.7532925,14.6978006 Z M10.3207413,13.8380463 C9.82686379,13.8380463 9.4729182,14.181948 9.4729182,14.6958012 C9.4729182,15.2116538 9.82686379,15.5535561 10.3392618,15.5535561 C10.5862005,15.5535561 10.8331393,15.4855755 11.0286325,15.3296201 L10.8516597,15.0716938 C10.7096699,15.1756641 10.5326971,15.2436447 10.3577822,15.2436447 C10.127306,15.2436447 9.8988876,15.1396744 9.8453842,14.8497572 L11.0985985,14.8497572 C11.0985985,14.7977721 11.0985985,14.7637818 11.0985985,14.7117966 C11.1150611,14.181948 10.7960985,13.8380463 10.3207413,13.8380463 L10.3207413,13.8380463 L10.3207413,13.8380463 Z M10.3207413,14.1479577 C10.5512175,14.1479577 10.7096699,14.2859183 10.7446529,14.5418452 L9.86184678,14.5418452 C9.89682978,14.3199086 10.0552822,14.1479577 10.3207413,14.1479577 L10.3207413,14.1479577 Z M19.5233266,14.6978006 L19.5233266,13.2222222 L19.1529184,13.2222222 L19.1529184,14.0799771 C19.029449,13.9260211 18.8524762,13.8400457 18.622,13.8400457 C18.144585,13.8400457 17.7741769,14.1999429 17.7741769,14.6978006 C17.7741769,15.1956584 18.144585,15.5555556 18.622,15.5555556 C18.8689388,15.5555556 19.0459116,15.4695801 19.1529184,15.3156241 L19.1529184,15.5215653 L19.5233266,15.5215653 L19.5233266,14.6978006 L19.5233266,14.6978006 Z M18.1631055,14.6978006 C18.1631055,14.405884 18.3565408,14.1659526 18.6755034,14.1659526 C18.9759456,14.1659526 19.1879014,14.3898886 19.1879014,14.6978006 C19.1879014,14.9897172 18.9759456,15.2296487 18.6755034,15.2296487 C18.3565408,15.2116538 18.1631055,14.9877178 18.1631055,14.6978006 L18.1631055,14.6978006 Z M5.76266303,14.6978006 L5.76266303,13.874036 L5.39225485,13.874036 L5.39225485,14.0799771 C5.26878546,13.9260211 5.09181267,13.8400457 4.86133648,13.8400457 C4.3839215,13.8400457 4.01351333,14.1999429 4.01351333,14.6978006 C4.01351333,15.1956584 4.3839215,15.5555556 4.86133648,15.5555556 C5.10827526,15.5555556 5.28524805,15.4695801 5.39225485,15.3156241 L5.39225485,15.5215653 L5.76266303,15.5215653 L5.76266303,14.6978006 L5.76266303,14.6978006 Z M4.38597932,14.6978006 C4.38597932,14.405884 4.5794147,14.1659526 4.89837729,14.1659526 C5.19881948,14.1659526 5.41077526,14.3898886 5.41077526,14.6978006 C5.41077526,14.9897172 5.19881948,15.2296487 4.89837729,15.2296487 C4.5794147,15.2116538 4.38597932,14.9877178 4.38597932,14.6978006 Z" id="XMLID_1775_" fill="#FFFFFF"></path>
            </g>
        </g>
    </g>
</svg>