<?xml version="1.0" encoding="UTF-8"?>
<svg width="20px" height="22px" viewBox="0 0 20 22" version="1.1" xmlns="http://www.w3.org/2000/svg" xmlns:xlink="http://www.w3.org/1999/xlink">
    <title>My Orders</title>
    <g id="App-Designs" stroke="none" stroke-width="1" fill="none" fill-rule="evenodd">
        <g id="Settings-Copy" transform="translate(-18.000000, -211.000000)">
            <g id="Group-2" transform="translate(0.000000, 191.000000)">
                <g id="Group" transform="translate(1.000000, 0.000000)">
                    <g id="receipt-2" transform="translate(15.000000, 19.000000)">
                        <path d="M9.52000046,19.8500004 L10.5299997,21.2000008 C11.3399997,22.2700008 12.65,22.2700008 13.46,21.2000008 L14.4700003,19.8500004 C15.1900003,18.8900004 16.4400002,18.8200008 17.2600002,19.7000008 C19.0400002,21.6000007 20.490078,20.9699996 20.490078,18.3099995 L20.490078,7.03999996 C20.5,3.00999975 19.5599997,2 15.7799997,2 L8.22000027,2 C4.4400003,2 3.5,3.00999975 3.5,7.03999996 L3.5,18.2999992 C3.5,20.9699993 4.96000004,21.5900007 6.73000002,19.7000008 C7.55000001,18.8200008 8.80000043,18.8900004 9.52000046,19.8500004 Z" id="Vector" stroke="#777777" stroke-width="1.5" stroke-linecap="round" stroke-linejoin="round" stroke-dasharray="0,0" fill-rule="nonzero"></path>
                        <line x1="8.09606983" y1="11" x2="8.10505177" y2="11" id="Vector" stroke="#777777" stroke-width="2" stroke-linecap="round" stroke-linejoin="round" stroke-dasharray="0,0"></line>
                        <line x1="10.8984375" y1="11" x2="16.3984385" y2="11" id="Vector" stroke="#777777" stroke-width="1.5" stroke-linecap="round" stroke-linejoin="round" stroke-dasharray="0,0"></line>
                        <line x1="8.09606983" y1="7" x2="8.10505177" y2="7" id="Vector" stroke="#777777" stroke-width="2" stroke-linecap="round" stroke-linejoin="round" stroke-dasharray="0,0"></line>
                        <line x1="10.8984375" y1="7" x2="16.3984385" y2="7" id="Vector" stroke="#777777" stroke-width="1.5" stroke-linecap="round" stroke-linejoin="round" stroke-dasharray="0,0"></line>
                        <path d="M24,0 L24,24 L0,24 L0,0 L24,0 Z" id="Vector" opacity="0"></path>
                    </g>
                </g>
            </g>
        </g>
    </g>
</svg>