<?xml version="1.0" encoding="UTF-8"?>
<svg width="20px" height="21px" viewBox="0 0 20 21" version="1.1" xmlns="http://www.w3.org/2000/svg" xmlns:xlink="http://www.w3.org/1999/xlink">
    <title>Orders</title>
    <g id="App-Designs" stroke="none" stroke-width="1" fill="none" fill-rule="evenodd">
        <g id="Artboard-Copy-2" transform="translate(-135.000000, -755.000000)">
            <g id="Bottom_Navigation" transform="translate(0.000000, 740.000000)">
                <g id="Search" transform="translate(124.000000, 14.000000)">
                    <g id="receipt-item" transform="translate(10.000000, 0.000000)">
                        <path d="M14.6666667,10.7708333 C14.2908333,10.7708333 13.9791667,10.4591667 13.9791667,10.0833333 L13.9791667,3.67583179 C13.9791667,2.99749845 14.2449995,2.36500124 14.7216662,1.88833459 C15.1983328,1.41166794 15.8308335,1.14583333 16.5091669,1.14583333 L16.5183338,1.14583333 C17.6641671,1.155 18.7458337,1.60416612 19.5708337,2.41999944 C20.3958337,3.25416613 20.8450509,4.35416667 20.8450509,5.5 L20.8450509,7.71833165 C20.8541665,9.54249833 19.6258334,10.7708333 17.8016667,10.7708333 L14.6666667,10.7708333 Z M17.8016667,9.39583333 C18.865,9.39583333 19.4791667,8.78166496 19.4791667,7.71833165 L19.4791667,5.5 C19.4791667,4.71166665 19.1674993,3.9600007 18.6083326,3.39166737 C18.049166,2.84166734 17.2975004,2.53 16.5183338,2.52083333 C16.5183336,2.52083333 16.515278,2.52083333 16.5091669,2.52083333 C16.2066669,2.52083333 15.9133341,2.63999903 15.6933341,2.85999902 C15.4733341,3.07999902 15.3541667,3.36416512 15.3541667,3.67583179 L15.3541667,9.39583333 L15.3541667,9.39583333 L17.8016667,9.39583333 Z" id="Vector" fill="#777777"></path>
                        <path d="M7.11333354,20.9091644 L5.59166658,19.3783328 C5.50916658,19.2958328 5.38083332,19.2866692 5.28916665,19.3600025 L3.71250017,20.5333347 C3.22666687,20.9000014 2.58500005,20.9641664 2.03500003,20.6891664 C1.485,20.4141664 1.14583333,19.8641667 1.14583333,19.25 L1.14583333,5.5 C1.14583333,2.73166668 2.73166668,1.14583333 5.5,1.14583333 L16.5,1.14583333 C16.8758333,1.14583333 17.1875,1.4575 17.1875,1.83333333 C17.1875,2.20916666 16.8758333,2.52083333 16.5,2.52083333 C15.8675,2.52083333 15.3541667,3.03416667 15.3541667,3.66666667 L15.3541667,19.25 C15.3541667,19.8641667 15.0149998,20.4141664 14.4649998,20.6891664 C13.9149997,20.9641664 13.2733331,20.90917 12.7874998,20.5425034 L11.2199998,19.3691641 C11.1283331,19.2958308 11.0000001,19.3141681 10.9266667,19.3875014 L9.38666646,20.9275017 C9.08416644,21.220835 8.68083333,21.385835 8.25,21.385835 C7.81916667,21.385835 7.41583356,21.2208311 7.11333354,20.9091644 Z M6.56333319,18.41583 L8.08499972,19.9466686 C8.13999972,20.0016686 8.21333333,20.010835 8.25,20.010835 C8.28666667,20.010835 8.36000028,20.0016686 8.41500028,19.9466686 L9.95499969,18.4066683 C10.523333,17.838335 11.4216663,17.7833336 12.0541663,18.2691669 L13.6125003,19.4333305 C13.7133337,19.5066639 13.8049997,19.4791678 13.850833,19.4516678 C13.8966664,19.4241678 13.9791667,19.3691667 13.9791667,19.25 L13.9791667,3.66666667 C13.9791667,3.25416668 14.0800002,2.86 14.2541668,2.52083333 L5.5,2.52083333 C3.46499997,2.52083333 2.52083333,3.46499997 2.52083333,5.5 L2.52083333,19.25 C2.52083333,19.3783333 2.60333343,19.4333364 2.64916676,19.4608364 C2.70416676,19.4883364 2.79583342,19.5066639 2.88750009,19.4333305 L4.45500012,18.2599983 C4.73916679,18.049165 5.07833319,17.9391664 5.41749986,17.9391664 C5.83916653,17.9391664 6.25166652,18.0949966 6.56333319,18.41583 Z" id="Vector" fill="#777777"></path>
                        <path d="M8.25,12.6131185 C7.87416667,12.6131185 7.5625,12.3014518 7.5625,11.9256185 C7.5625,11.5497852 7.87416667,11.2381185 8.25,11.2381185 L11,11.2381185 C11.3758333,11.2381185 11.6875,11.5497852 11.6875,11.9256185 C11.6875,12.3014518 11.3758333,12.6131185 11,12.6131185 L8.25,12.6131185 Z" id="Vector" fill="#777777" fill-rule="nonzero"></path>
                        <path d="M8.25,8.94645182 C7.87416667,8.94645182 7.5625,8.63478515 7.5625,8.25895182 C7.5625,7.88311849 7.87416667,7.57145182 8.25,7.57145182 L11,7.57145182 C11.3758333,7.57145182 11.6875,7.88311849 11.6875,8.25895182 C11.6875,8.63478515 11.3758333,8.94645182 11,8.94645182 L8.25,8.94645182 Z" id="Vector" fill="#777777" fill-rule="nonzero"></path>
                        <path d="M4.55647786,8.25895182 C4.55647786,7.75478515 4.96897785,7.34228516 5.47314453,7.34228516 C5.97731121,7.34228516 6.3898112,7.75478515 6.3898112,8.25895182 C6.3898112,8.7631185 5.97731121,9.17561849 5.47314453,9.17561849 C4.96897785,9.17561849 4.55647786,8.7631185 4.55647786,8.25895182 Z" id="Vector" fill="#777777" fill-rule="nonzero"></path>
                        <path d="M4.55647786,11.9256185 C4.55647786,11.4214518 4.96897785,11.0089518 5.47314453,11.0089518 C5.97731121,11.0089518 6.3898112,11.4214518 6.3898112,11.9256185 C6.3898112,12.4297852 5.97731121,12.8422852 5.47314453,12.8422852 C4.96897785,12.8422852 4.55647786,12.4297852 4.55647786,11.9256185 Z" id="Vector" fill="#777777" fill-rule="nonzero"></path>
                        <path d="M22,0 L22,22 L0,22 L0,0 L22,0 Z" id="Vector" opacity="0"></path>
                    </g>
                </g>
            </g>
        </g>
    </g>
</svg>