<?xml version="1.0" encoding="UTF-8"?>
<svg width="20px" height="22px" viewBox="0 0 20 22" version="1.1" xmlns="http://www.w3.org/2000/svg" xmlns:xlink="http://www.w3.org/1999/xlink">
    <title>Privacy policy</title>
    <g id="App-Designs" stroke="none" stroke-width="1" fill="none" fill-rule="evenodd">
        <g id="Settings-Copy" transform="translate(-18.000000, -389.000000)">
            <g id="Privacy-Policy" transform="translate(0.000000, 372.000000)">
                <g id="frame" transform="translate(16.000000, 16.000000)">
                    <path d="M8.98039007,21.8099403 L4.68039036,18.5999413 C3.54039037,17.7499412 2.65039062,15.9799422 2.65039062,14.5599422 L2.65039062,7.11994123 C2.65039062,5.57994127 3.7803905,3.93994147 5.23039055,3.39994144 L10.2203908,1.52994141 C11.2103908,1.15994141 12.7703912,1.15994141 13.7603912,1.52994141 L18.7603912,3.39994144 C20.2103913,3.93994147 21.3403912,5.57994127 21.3403912,7.11994123 L21.3403912,14.549942 C21.3403912,15.969942 20.4503905,17.739941 19.3103905,18.589941 L15.0103912,21.7999401 C14.1703913,22.4399401 13.090391,22.7599411 12.000391,22.7599411 C10.910391,22.7599411 9.8303901,22.4399403 8.98039007,21.8099403 Z M5.76039076,4.80994129 C4.90039074,5.12994128 4.15039062,6.20994145 4.15039062,7.12994146 L4.15039062,14.5599422 C4.15039062,15.5099422 4.8203907,16.8399405 5.5703907,17.3999405 L9.87039042,20.6099415 C11.0203904,21.4699415 12.97039,21.4699415 14.1203899,20.6099415 L18.4203911,17.3999405 C19.1803911,16.8299405 19.8403912,15.4999422 19.8403912,14.5599422 L19.8403912,7.11994123 C19.8403912,6.20994121 19.0903906,5.12994155 18.2303905,4.79994154 L13.2403908,2.92994153 C12.5803908,2.68994154 11.420391,2.68994153 10.750391,2.93994153 L5.76039076,4.80994129 Z" id="Vector" fill="#777777"></path>
                    <path d="M9.25,10.5 C9.25,8.98000002 10.48,7.75 12,7.75 C13.52,7.75 14.75,8.98000002 14.75,10.5 C14.75,12.02 13.52,13.25 12,13.25 C10.48,13.25 9.25,12.02 9.25,10.5 Z M10.75,10.5 C10.75,11.19 11.31,11.75 12,11.75 C12.69,11.75 13.25,11.19 13.25,10.5 C13.25,9.81 12.69,9.25 12,9.25 C11.31,9.25 10.75,9.81 10.75,10.5 Z" id="Vector" fill="#777777"></path>
                    <path d="M11.25,15.5 L11.25,12.5 C11.25,12.09 11.59,11.75 12,11.75 C12.41,11.75 12.75,12.09 12.75,12.5 L12.75,15.5 C12.75,15.91 12.41,16.25 12,16.25 C11.59,16.25 11.25,15.91 11.25,15.5 Z" id="Vector" fill="#777777" fill-rule="nonzero"></path>
                    <path d="M24,0 L24,24 L0,24 L0,0 L24,0 Z" id="Vector" opacity="0"></path>
                </g>
            </g>
        </g>
    </g>
</svg>