<?xml version="1.0" encoding="UTF-8"?>
<svg width="22px" height="22px" viewBox="0 0 22 22" version="1.1" xmlns="http://www.w3.org/2000/svg" xmlns:xlink="http://www.w3.org/1999/xlink">
    <title>Profile</title>
    <g id="App-Designs" stroke="none" stroke-width="1" fill="none" fill-rule="evenodd">
        <g id="Settings-Copy" transform="translate(-21.000000, -151.000000)">
            <g id="Privacy-Policy-Copy" transform="translate(0.000000, 131.000000)">
                <g id="user-square" transform="translate(20.000000, 19.000000)">
                    <path d="M9.00063324,22.75 C7.68063319,22.75 6.58063471,22.6200269 5.65063471,22.3400269 C5.3106347,22.2400269 5.09063381,21.9099976 5.11063381,21.5599976 C5.36063381,18.5699975 8.39063334,16.2199707 12.0006332,16.2199707 C15.6106331,16.2199707 18.6306326,18.5599976 18.8906326,21.5599976 C18.9206326,21.9199976 18.7006317,22.2400269 18.3506317,22.3400269 C17.4206317,22.6200269 16.3206333,22.75 15.0006332,22.75 L9.00063324,22.75 Z M9.00063324,21.25 L15.0006332,21.25 C15.8706332,21.25 16.620632,21.1899976 17.280632,21.0599976 C16.750632,19.1399976 14.5606332,17.7199707 12.0006332,17.7199707 C9.4406333,17.7199707 7.25063443,19.1399976 6.72063446,21.0599976 C7.38063449,21.1899976 8.13063323,21.25 9.00063324,21.25 Z" id="Vector" fill="#777777"></path>
                    <path d="M9,2 C4,2 2,4 2,9 L2,15 C2,18.78 3.14000058,20.8499951 5.86000061,21.6199951 C6.08000061,19.0199952 8.75,16.9699707 12,16.9699707 C15.25,16.9699707 17.9199994,19.0199952 18.1399994,21.6199951 C20.8599994,20.8499951 22,18.78 22,15 L22,9 C22,4 20,2 15,2 L9,2 Z M8.41999817,10.5800171 C8.41999817,8.60001707 10.02,7 12,7 C13.98,7 15.5800018,8.60001707 15.5800018,10.5800171 C15.5800018,12.5600171 13.98,14.1699829 12,14.1699829 C10.02,14.1699829 8.41999817,12.5600171 8.41999817,10.5800171 Z" id="Vector" stroke="#777777" stroke-width="1.5" stroke-linecap="round" stroke-linejoin="round" stroke-dasharray="0,0"></path>
                    <path d="M7.66992188,10.5800171 C7.66992188,8.19001698 9.6099236,6.25 11.9999237,6.25 C14.3899238,6.25 16.3299255,8.19001698 16.3299255,10.5800171 C16.3299255,12.9700172 14.3899238,14.9199829 11.9999237,14.9199829 C9.6099236,14.9199829 7.66992188,12.9700172 7.66992188,10.5800171 Z M9.16992188,10.5800171 C9.16992188,12.1500171 10.4399238,13.4199829 11.9999237,13.4199829 C13.5599236,13.4199829 14.8299255,12.1500171 14.8299255,10.5800171 C14.8299255,9.02001715 13.5599236,7.75 11.9999237,7.75 C10.4399238,7.75 9.16992188,9.02001715 9.16992188,10.5800171 Z" id="Vector" fill="#777777"></path>
                    <path d="M24,0 L24,24 L0,24 L0,0 L24,0 Z" id="Vector" opacity="0"></path>
                </g>
            </g>
        </g>
    </g>
</svg>