<?xml version="1.0" encoding="UTF-8"?>
<svg width="22px" height="22px" viewBox="0 0 22 22" version="1.1" xmlns="http://www.w3.org/2000/svg" xmlns:xlink="http://www.w3.org/1999/xlink">
    <title>Right_Arrow</title>
    <g id="Page-1" stroke="none" stroke-width="1" fill="none" fill-rule="evenodd">
        <g id="Home_1-Copy-2" transform="translate(-319.000000, -476.000000)">
            <g id="Right_Arrow" transform="translate(330.000000, 487.000000) scale(-1, -1) rotate(90.000000) translate(-330.000000, -487.000000) translate(319.826999, 476.826999)">
                <g id="Vector" transform="translate(10.173001, 10.173001) rotate(-91.000000) translate(-10.173001, -10.173001) translate(0.173001, 0.173001)">
                    <path d="M12.0577478,17.0416832 L6.62441403,11.6083503 C5.74108074,10.725017 5.74108074,9.27501599 6.62441403,8.3916827 L12.0577478,2.95834961 C12.2994145,2.71668295 12.6994141,2.71668295 12.9410807,2.95834961 C13.1827474,3.20001627 13.1827474,3.60001641 12.9410807,3.84168307 L7.50774771,9.27501639 C7.10774772,9.67501638 7.10774772,10.3250166 7.50774771,10.7250166 L12.9410807,16.1583487 C13.1827474,16.4000154 13.1827474,16.8000165 12.9410807,17.0416832 C12.8160807,17.1583499 12.6577476,17.225016 12.4994143,17.225016 C12.341081,17.225016 12.1827478,17.1666832 12.0577478,17.0416832 Z" fill="#777777" fill-rule="nonzero"></path>
                    <path d="M20,0 L20,20 L0,20 L0,0 L20,0 Z" opacity="0"></path>
                </g>
            </g>
        </g>
    </g>
</svg>