<?xml version="1.0" encoding="UTF-8"?>
<svg width="22px" height="22px" viewBox="0 0 22 22" version="1.1" xmlns="http://www.w3.org/2000/svg" xmlns:xlink="http://www.w3.org/1999/xlink">
    <title>settings</title>
    <g id="App-Designs" stroke="none" stroke-width="1" fill="none" fill-rule="evenodd">
        <g id="Artboard-Copy-2" transform="translate(-307.000000, -754.000000)">
            <g id="Bottom_Navigation" transform="translate(0.000000, 740.000000)">
                <g id="Settings" transform="translate(295.000000, 14.000000)">
                    <g id="setting-2" transform="translate(12.000000, 0.000000)">
                        <path d="M22,0 L22,22 L0,22 L0,0 L22,0 Z" id="Vector" opacity="0"></path>
                        <path d="M7.5625,11 C7.5625,9.10250006 9.10250006,7.5625 11,7.5625 C12.8974999,7.5625 14.4375,9.10250006 14.4375,11 C14.4375,12.8974999 12.8974999,14.4375 11,14.4375 C9.10250006,14.4375 7.5625,12.8974999 7.5625,11 Z M8.9375,11 C8.9375,12.1366667 9.86333332,13.0625 11,13.0625 C12.1366667,13.0625 13.0625,12.1366667 13.0625,11 C13.0625,9.86333332 12.1366667,8.9375 11,8.9375 C9.86333332,8.9375 8.9375,9.86333332 8.9375,11 Z" id="Vector" fill="#777777"></path>
                        <path d="M13.3649999,20.2673152 C12.7966666,20.1114819 12.3199997,19.7539813 12.0174997,19.2498147 L11.9074998,19.0664806 C11.3666665,18.1314807 10.6241666,18.1314807 10.0833333,19.0664806 L9.98250031,19.2406478 C9.6800003,19.7539811 9.20333341,20.1206486 8.63500007,20.2673152 C8.05750007,20.4231486 7.46166682,20.3406486 6.95750014,20.0381486 L5.38083323,19.1306488 C4.82166655,18.8098154 4.41833344,18.2873149 4.24416677,17.6548149 C4.07916677,17.0223149 4.16166655,16.3714813 4.48249988,15.8123147 C4.7483332,15.3448147 4.82166681,14.9231478 4.66583347,14.6573145 C4.51000014,14.3914811 4.1158334,14.2356478 3.57500009,14.2356478 C2.23666672,14.2356478 1.14583333,13.1448148 1.14583333,11.8064814 L1.14583333,10.1931479 C1.14583333,8.85481453 2.23666672,7.76398202 3.57500009,7.76398202 C4.1158334,7.76398202 4.51000014,7.60814864 4.66583347,7.34231532 C4.82166681,7.07648199 4.75749989,6.6548151 4.48249988,6.18731511 C4.16166655,5.62814843 4.07916677,4.96814802 4.24416677,4.34481468 C4.40916678,3.71231468 4.81249989,3.18981499 5.38083323,2.86898166 L6.96666658,1.96148168 C8.00249991,1.347315 9.36833298,1.7048149 9.99166632,2.75898155 L10.1016671,2.94231492 C10.6425004,3.87731491 11.3850002,3.87731491 11.9258335,2.94231492 L12.0266666,2.7681482 C12.6499999,1.7048149 14.0158336,1.347315 15.0608336,1.97064834 L16.6374997,2.87814832 C17.1966663,3.19898165 17.5999994,3.72148156 17.7741661,4.35398155 C17.9391661,4.98648155 17.8566659,5.6373153 17.5358326,6.19648198 C17.2699992,6.66398197 17.1966669,7.08564887 17.3525003,7.35148219 C17.5083336,7.61731552 17.9025008,7.77314802 18.4433341,7.77314802 C19.7816675,7.77314802 20.8725004,8.86398141 20.8725004,10.2023148 L20.8725004,11.8156483 C20.8725004,13.1539817 19.7816675,14.2448146 18.4433341,14.2448146 C17.9025008,14.2448146 17.5083336,14.400648 17.3525003,14.6664813 C17.1966669,14.9323147 17.2608326,15.3539816 17.5358326,15.8214815 C17.8566659,16.3806482 17.9483328,17.0406484 17.7741661,17.6639818 C17.6091661,18.2964818 17.205833,18.8189806 16.6374997,19.1398139 L15.0516667,20.0473154 C14.7033334,20.2398154 14.3275,20.3406485 13.9425,20.3406485 C13.75,20.3406485 13.5574999,20.3131486 13.3649999,20.2673152 Z M13.0991666,18.3698155 L13.1999997,18.5439809 C13.3099996,18.7364809 13.4933334,18.873981 13.7133334,18.928981 C13.9333334,18.983981 14.1533336,18.9564808 14.336667,18.8464808 L15.9225008,17.9298142 C16.1608341,17.7923142 16.3441665,17.5631486 16.4174999,17.2881486 C16.4908332,17.0131486 16.454166,16.7289811 16.316666,16.4906478 C15.794166,15.5923144 15.7300004,14.6664809 16.1333337,13.9606476 C16.536667,13.2548143 17.3708335,12.8514818 18.4158335,12.8514818 C19.0025001,12.8514818 19.4699998,12.3839812 19.4699998,11.7973146 L19.4699998,10.183981 C19.4699998,9.60648103 19.0025001,9.1298147 18.4158335,9.1298147 C17.3708335,9.1298147 16.536667,8.72648176 16.1333337,8.02064844 C15.7300004,7.31481512 15.794166,6.38898158 16.316666,5.49064823 C16.454166,5.25231491 16.4908332,4.96814813 16.4174999,4.69314812 C16.3441665,4.41814811 16.1699992,4.19814829 15.9316659,4.05148162 L14.345833,3.14398162 C13.9516663,2.90564829 13.429167,3.04314821 13.1908336,3.44648155 L13.0899998,3.62064826 C12.5674998,4.52814827 11.8066664,5.04148155 10.9908331,5.04148155 C10.1749998,5.04148155 9.41416649,4.52814827 8.89166649,3.62064826 L8.79083347,3.43731489 C8.56166681,3.0523149 8.04833369,2.91481495 7.65416702,3.14398162 L6.06833323,4.06064806 C5.8299999,4.19814807 5.6466666,4.42731498 5.57333326,4.70231499 C5.49999993,4.977315 5.53666671,5.26148178 5.67416672,5.49981511 C6.19666671,6.39814846 6.26083321,7.323982 5.85749988,8.02981532 C5.45416655,8.73564863 4.62000007,9.13898158 3.57500009,9.13898158 C2.98833343,9.13898158 2.52083333,9.60648124 2.52083333,10.1931479 L2.52083333,11.8064814 C2.52083333,12.3839814 2.98833343,12.8606478 3.57500009,12.8606478 C4.62000007,12.8606478 5.45416655,13.2639811 5.85749988,13.9698145 C6.26083321,14.6756478 6.19666671,15.6014813 5.67416672,16.4998147 C5.53666671,16.738148 5.49999993,17.0223154 5.57333326,17.2973154 C5.6466666,17.5723154 5.82083346,17.7923144 6.05916679,17.9389811 L7.64500014,18.8464808 C7.83750013,18.9656475 8.06666642,18.9931479 8.27749976,18.9381479 C8.49749975,18.8831479 8.68083369,18.7364809 8.80000035,18.5439809 L8.90083337,18.3698155 C9.42333336,17.4714822 10.1841667,16.9489811 11,16.9489811 C11.8158333,16.9489811 12.5766666,17.4623155 13.0991666,18.3698155 Z" id="Vector" fill="#777777"></path>
                    </g>
                </g>
            </g>
        </g>
    </g>
</svg>