<?xml version="1.0" encoding="UTF-8"?>
<svg width="22px" height="22px" viewBox="0 0 22 22" version="1.1" xmlns="http://www.w3.org/2000/svg" xmlns:xlink="http://www.w3.org/1999/xlink">
    <title>Terms &amp; Conditions</title>
    <g id="App-Designs" stroke="none" stroke-width="1" fill="none" fill-rule="evenodd">
        <g id="Settings-Copy" transform="translate(-17.000000, -451.000000)">
            <g id="Terms-&amp;-Conditions" transform="translate(0.000000, 432.000000)">
                <g id="key-square" transform="translate(16.000000, 18.000000)">
                    <path d="M9,22.75 C3.57000017,22.75 1.25,20.4299998 1.25,15 L1.25,9 C1.25,3.57000017 3.57000017,1.25 9,1.25 L15,1.25 C20.4299998,1.25 22.75,3.57000017 22.75,9 L22.75,15 C22.75,20.4299998 20.4299998,22.75 15,22.75 L9,22.75 Z M2.75,9 L2.75,15 C2.75,19.6100001 4.38999987,21.25 9,21.25 L15,21.25 C19.6100001,21.25 21.25,19.6100001 21.25,15 L21.25,9 C21.25,4.38999987 19.6100001,2.75 15,2.75 L9,2.75 C4.38999987,2.75 2.75,4.38999987 2.75,9 Z" id="Vector" fill="#777777"></path>
                    <path d="M8.58974409,18.2300682 L7.39974403,18.0700684 C6.67974401,17.9700684 6.04974395,17.3500693 5.93974395,16.6100693 L5.76974387,15.4000683 C5.69974387,14.9200683 5.89974388,14.3100685 6.24974388,13.9500685 L8.52974367,11.6700683 C8.18974367,10.0500683 8.67974377,8.37006831 9.86974382,7.19006836 C11.7797438,5.2800684 14.899743,5.2800684 16.8097429,7.19006836 C17.7397429,8.12006837 18.2497435,9.35006809 18.2497435,10.660068 C18.2497435,11.970068 17.7397429,13.2100688 16.8097429,14.1300688 C15.6197429,15.3100687 13.9397439,15.8000687 12.3297439,15.4600687 L10.0397439,17.7400684 C9.74974391,18.0500684 9.25974435,18.2500687 8.80974436,18.2500687 C8.73974436,18.2500687 8.65974409,18.2500687 8.58974409,18.2300682 Z M10.9297442,8.25006819 C10.0297443,9.15006816 9.70974386,10.4600685 10.0797439,11.6800685 C10.1597439,11.9500685 10.0897443,12.2300685 9.88974428,12.4300685 L7.30974388,15.0100689 C7.28974388,15.0400689 7.24974394,15.1500682 7.24974394,15.1900682 L7.41974401,16.3900681 C7.42974401,16.4500681 7.53974384,16.5600684 7.59974384,16.5700684 L8.79974413,16.7400684 C8.84974413,16.7300684 8.94974348,16.710069 8.97974348,16.680069 L11.5697436,14.0900688 C11.7697436,13.8900688 12.0597436,13.8300685 12.3197436,13.9100685 C13.5297437,14.2900685 14.8397433,13.9700679 15.7397432,13.0700679 C16.3797432,12.4300679 16.7397432,11.5700681 16.7397432,10.660068 C16.7397432,9.75006801 16.3897432,8.89006817 15.7397432,8.25006819 C15.0897433,7.59006816 14.2097441,7.25006831 13.3397441,7.25006831 C12.4697441,7.25006831 11.5897443,7.58006817 10.9297442,8.25006819 Z" id="Vector" fill="#777777"></path>
                    <path d="M9.9192965,16.8101065 L9.05929688,15.9501069 C8.76929688,15.6601069 8.76929688,15.1801074 9.05929688,14.8901074 C9.34929687,14.6001074 9.82929632,14.6001074 10.1192963,14.8901074 L10.979296,15.750107 C11.269296,16.040107 11.269296,16.5201065 10.979296,16.8101065 C10.839296,16.9601065 10.6492962,17.0301077 10.4492962,17.0301077 C10.2592962,17.0301077 10.0692965,16.9601065 9.9192965,16.8101065 Z" id="Vector" fill="#777777" fill-rule="nonzero"></path>
                    <path d="M12.9891405,11.7301161 C12.8691406,11.6801161 12.7591408,11.6001168 12.6691408,11.5101168 C12.4791408,11.3201168 12.3691406,11.0701168 12.3691406,10.8001168 C12.3691406,10.5401168 12.4791408,10.280117 12.6691408,10.100117 C12.8991408,9.86011703 13.2491404,9.75011633 13.5691404,9.82011633 C13.6291404,9.84011633 13.699141,9.85011675 13.759141,9.88011675 C13.819141,9.91011675 13.879141,9.94011691 13.929141,9.97011691 C13.979141,10.0101169 14.0391407,10.050117 14.0791407,10.100117 C14.2691407,10.280117 14.3791409,10.5401168 14.3791409,10.8001168 C14.3791409,10.9401168 14.3491409,11.0601162 14.2991409,11.1901162 C14.2491409,11.3101162 14.1791407,11.4201168 14.0791407,11.5101168 C13.8891407,11.7001168 13.6391408,11.8001168 13.3791409,11.8001168 C13.2391409,11.8001168 13.1091405,11.7801161 12.9891405,11.7301161 Z" id="Vector" fill="#777777" fill-rule="nonzero"></path>
                    <path d="M24,0 L24,24 L0,24 L0,0 L24,0 Z" id="Vector" opacity="0"></path>
                </g>
            </g>
        </g>
    </g>
</svg>