<?xml version="1.0" encoding="UTF-8"?>
<svg width="50px" height="50px" viewBox="0 0 50 50" version="1.1" xmlns="http://www.w3.org/2000/svg" xmlns:xlink="http://www.w3.org/1999/xlink">
    <title>Visa</title>
    <g id="Visa" stroke="none" stroke-width="1" fill="none" fill-rule="evenodd">
        <g id="Group" transform="translate(0.000000, 9.000000)" fill-rule="nonzero">
            <path d="M50,29.257003 C50,30.7719182 48.6767578,32 47.0444336,32 L2.95556641,32 C1.32324219,32 0,30.7719182 0,29.257003 L0,2.74290634 C0,1.22799118 1.32324219,0 2.95556641,0 L47.0444336,0 C48.6768555,0 50,1.2280818 50,2.74290634 L50,29.257003 Z" id="Path" fill="#FFFFFF"></path>
            <path d="M11,16 L9.84317641,10.933956 C9.64543289,10.2353337 9.07000409,10.0274951 8.35100676,10 L3.04724675,10 L3,10.2314686 C7.13086675,11.1456598 9.86415358,13.351068 11,16 Z" id="Path" fill="#F79F1A"></path>
            <path d="M23.5697266,10.0524497 L20.0918945,10.0524497 L17.9198242,21.8265373 L21.3918945,21.8265373 L23.5697266,10.0524497 Z M13.2172852,21.8147205 L18.6870117,10.0604778 L15.00625,10.0604778 L11.6036133,18.0911801 L11.2404297,16.8786548 C10.5734375,15.4199622 8.6671875,13.3204587 6.42929687,11.9987863 L9.53964844,21.8186895 L13.2172852,21.8147205 L13.2172852,21.8147205 Z M33.4893555,17.977613 C33.5022461,16.6408765 32.5730469,15.621298 30.5707031,14.7791513 C29.3538086,14.2352198 28.6121094,13.8725086 28.6209961,13.3205489 C28.6209961,12.8329049 29.2491211,12.3090889 30.6100586,12.3090889 C31.7488281,12.2929423 32.56875,12.5226023 33.2100586,12.7603807 L33.5243164,12.8934319 L33.9956055,10.3427269 C33.30625,10.1048583 32.2286133,9.85102361 30.8808594,9.85102361 C27.4475586,9.85102361 25.0308594,11.4468267 25.0089844,13.7355786 C24.9871094,15.4280806 26.7367187,16.3709854 28.0540039,16.9350325 C29.40625,17.5099942 29.8599609,17.8779373 29.8512695,18.3937251 C29.8425781,19.1823807 28.7736328,19.5420249 27.774707,19.5420249 C26.3831055,19.5420249 25.6458008,19.3647736 24.5023437,18.9247574 L24.0580078,18.7362305 L23.5699219,21.3746141 C24.3807617,21.7019652 25.88125,21.988093 27.4388672,22 C31.0899414,22 33.4631836,20.4244929 33.4893555,17.977613 L33.4893555,17.977613 Z M37.6204102,20.0617817 C38.0173828,20.0617817 41.5639648,20.0658409 42.0702148,20.0658409 C42.1749023,20.4758191 42.4933594,21.8306867 42.4933594,21.8306867 L45.7170898,21.8306867 L42.9033203,10.0646272 L40.2205078,10.0646272 C39.387207,10.0646272 38.7679688,10.2741717 38.4013672,11.0396448 L33.2407227,21.8306867 L36.8922852,21.8306867 C36.8919922,21.8306867 37.4851563,20.3802928 37.6204102,20.0617817 L37.6204102,20.0617817 Z M40.0021484,14.3599723 C39.9849609,14.3921752 40.2902344,13.6790205 40.4647461,13.235757 L40.7001953,14.2510958 C40.7001953,14.2510958 41.3634766,17.0638441 41.5029297,17.6521561 L38.6193359,17.6521561 C38.9073242,16.9752635 40.0021484,14.3599723 40.0021484,14.3599723 L40.0021484,14.3599723 Z M47.0444336,0 L2.95556641,0 C1.32324219,0 0,1.22226732 0,2.73012124 L0,5.56361653 L50,5.56361653 L50,2.73012124 C50,1.22226732 48.6768555,0 47.0444336,0 Z" id="Shape" fill="#2A50A2"></path>
            <path d="M47.0444336,32 L2.95556641,32 C1.32324219,32 0,30.6817666 0,29.0557411 L0,26 L50,26 L50,29.0557411 C50,30.6817666 48.6768555,32 47.0444336,32 L47.0444336,32 Z" id="Path" fill="#F79F1A"></path>
        </g>
    </g>
</svg>