<?xml version="1.0" encoding="UTF-8"?>
<svg width="22px" height="22px" viewBox="0 0 22 22" version="1.1" xmlns="http://www.w3.org/2000/svg" xmlns:xlink="http://www.w3.org/1999/xlink">
    <title>Work</title>
    <g id="App-Designs" stroke="none" stroke-width="1" fill="none" fill-rule="evenodd">
        <g id="location_map_copy-copy-2" transform="translate(-21.000000, -246.000000)">
            <g id="briefcase" transform="translate(20.000000, 245.000000)">
                <path d="M8.00022745,22.7500095 C3.38022757,22.7500095 2.52022746,20.6000097 2.30022746,18.5100098 L1.55022744,10.5000095 C1.44022745,9.45000958 1.4102276,7.90000927 2.45022756,6.74000931 C3.35022753,5.74000931 4.84022737,5.26000977 7.00022745,5.26000977 L17.0002279,5.26000977 C19.170228,5.26000977 20.6602262,5.7500093 21.5502262,6.74000931 C22.5902262,7.90000927 22.5602277,9.45000982 22.4502277,10.5100098 L21.7002277,18.5000095 C21.4802277,20.6000094 20.6202278,22.7500095 16.0002279,22.7500095 L8.00022745,22.7500095 Z M3.56022739,7.74000931 C3.07022738,8.28000933 2.91022742,9.11000991 3.04022741,10.3500099 L3.79022741,18.3600101 C3.96022741,19.9400102 4.39022756,21.2500095 8.00022745,21.2500095 L16.0002279,21.2500095 C19.6002278,21.2500095 20.0402261,19.94001 20.2102261,18.3500099 L20.9602261,10.3600092 C21.0902261,9.11000919 20.9302275,8.28000933 20.4402275,7.74000931 C19.8502275,7.08000928 18.690228,6.75000954 17.0002279,6.75000954 L7.00022745,6.75000954 C5.31022739,6.75000954 4.15022737,7.08000928 3.56022739,7.74000931 Z" id="Vector" fill="#131313"></path>
                <path d="M15.25,6 L15.25,5.19999981 C15.25,3.41999984 15.25,2.75 12.8000002,2.75 L11.1999998,2.75 C8.75,2.75 8.75,3.41999984 8.75,5.19999981 L8.75,6 C8.75,6.41 8.41,6.75 8,6.75 C7.59,6.75 7.25,6.41 7.25,6 L7.25,5.19999981 C7.25,3.43999982 7.25,1.25 11.1999998,1.25 L12.8000002,1.25 C16.75,1.25 16.75,3.43999982 16.75,5.19999981 L16.75,6 C16.75,6.41 16.41,6.75 16,6.75 C15.59,6.75 15.25,6.41 15.25,6 Z" id="Vector" fill="#131313" fill-rule="nonzero"></path>
                <path d="M9.25,14.0299997 L9.25,13 C9.25,11.59 9.59000003,11.25 11,11.25 L13,11.25 C14.41,11.25 14.75,11.59 14.75,13 L14.75,14 C14.75,15.04 14.75,16.75 12,16.75 C9.25,16.75 9.25,15.0499997 9.25,14.0299997 Z M10.75,13 L10.75,14.0299997 C10.75,15.0599997 10.75,15.25 12,15.25 C13.25,15.25 13.25,15.0900005 13.25,14.0200005 L13.25,13 C13.25,12.92 13.25,12.83 13.25,12.75 C13.17,12.75 13.08,12.75 13,12.75 L11,12.75 C10.92,12.75 10.83,12.75 10.75,12.75 C10.75,12.83 10.75,12.92 10.75,13 Z" id="Vector" fill="#131313"></path>
                <path d="M13.2595117,14.1099951 C13.2095117,13.6999951 13.4995113,13.3199959 13.9095113,13.2699959 C16.5495114,12.9399959 19.0795102,11.9399959 21.2095103,10.3899959 C21.5395103,10.1399959 22.0095119,10.219996 22.2595119,10.559996 C22.4995119,10.889996 22.4295119,11.3599952 22.0895119,11.6099952 C19.749512,13.3099953 16.9895117,14.3999962 14.0895116,14.7699962 C14.0595116,14.7699962 14.0295115,14.7699962 13.9995115,14.7699962 C13.6295115,14.7699962 13.2995117,14.4899951 13.2595117,14.1099951 Z" id="Vector" fill="#131313" fill-rule="nonzero"></path>
                <path d="M9.91072273,14.7799025 C7.17072272,14.4699025 4.50072271,13.469903 2.19072276,11.8899029 C1.85072276,11.6599029 1.7607227,11.1899029 1.9907227,10.8499029 C2.22072271,10.5099029 2.69072261,10.4199022 3.03072262,10.6499022 C5.14072251,12.0899022 7.57072258,12.9999025 10.0707226,13.2899024 C10.4807226,13.3399024 10.7807224,13.7099024 10.7307224,14.1199024 C10.7007224,14.4999024 10.3807229,14.7799025 10.0007229,14.7799025 C9.97072289,14.7799025 9.94072273,14.7799025 9.91072273,14.7799025 Z" id="Vector" fill="#131313" fill-rule="nonzero"></path>
                <path d="M24,0 L24,24 L0,24 L0,0 L24,0 Z" id="Vector" opacity="0"></path>
            </g>
        </g>
    </g>
</svg>